#!OML:ASF F:\VICON\USERDATA\INSTALL\Justin_Nancy\Justin_Nancy.ASF
:FULLY-SPECIFIED
:DEGREES
363
root -3.17998 17.2751 8.71593 232.352 -81.1652 -230.478
lowerback 7.28946 -1.61587 -7.50594
upperback 0.251707 -2.76229 0.797913
thorax -3.43789 -1.25391 5.32688
lowerneck -16.3486 -3.40674 -9.74942
upperneck 24.0277 -3.87422 5.34924
head 10.7347 -2.15989 2.99707
rclavicle -3.50855e-014 -5.56597e-015
rhumerus -35.2084 -15.6911 -78.7663
rradius 31.167
rwrist 9.33697
rhand -14.9558 12.1349
rfingers 7.12502
rthumb 11.2074 -17.5458
lclavicle -3.50855e-014 -5.56597e-015
lhumerus -22.3621 9.1889 87.3091
lradius 31.0168
lwrist -12.4344
lhand -14.2301 23.9745
lfingers 7.12502
lthumb 11.9073 53.6159
rfemur -31.9978 0.909101 14.9944
rtibia 24.7372
rfoot -4.58752 -5.37026
rtoes 15.9391
lfemur 3.59276 1.43792 -31.9165
ltibia 16.7577
lfoot -16.2888 -6.02164
ltoes 9.62057
364
root -3.32926 17.2595 8.68942 233.548 -81.1483 -231.608
lowerback 7.09067 -1.65036 -7.93977
upperback 0.290496 -2.82338 0.859799
thorax -3.25342 -1.28671 5.63171
lowerneck -16.4881 -3.3946 -9.85655
upperneck 24.0464 -3.81586 5.37674
head 10.7669 -2.13678 3.03313
rclavicle 2.25621e-014 -2.38542e-014
rhumerus -35.131 -15.9356 -78.7033
rradius 31.1619
rwrist 10.3652
rhand -15.6573 12.4205
rfingers 7.12502
rthumb 10.5308 -17.2957
lclavicle 2.25621e-014 -2.38542e-014
lhumerus -22.3076 9.09045 87.3233
lradius 30.9614
lwrist -11.8487
lhand -13.9727 23.6748
lfingers 7.12502
lthumb 12.1555 53.3016
rfemur -31.5594 2.30392 14.4091
rtibia 22.3108
rfoot -5.23512 -6.63178
rtoes 14.4898
lfemur 4.49258 2.28425 -31.8493
ltibia 15.8705
lfoot -16.3257 -6.61481
ltoes 7.14488
365
root -3.47104 17.2608 8.67907 234.555 -81.1919 -232.605
lowerback 7.04344 -1.67372 -8.08697
upperback 0.31438 -2.86189 0.852544
thorax -3.18937 -1.30762 5.70738
lowerneck -16.6839 -3.38576 -9.74422
upperneck 24.2249 -3.7975 5.28194
head 10.865 -2.13038 2.98338
rclavicle -2.87244e-014 7.15625e-015
rhumerus -34.976 -15.5892 -78.8646
rradius 31.1551
rwrist 10.0056
rhand -15.6912 12.0645
rfingers 7.12502
rthumb 10.498 -17.6534
lclavicle -2.87244e-014 7.15625e-015
lhumerus -22.2775 9.32829 87.2369
lradius 30.8586
lwrist -11.8165
lhand -12.3839 22.2086
lfingers 7.12502
lthumb 13.687 51.7386
rfemur -31.0019 3.76614 13.7324
rtibia 20.0381
rfoot -6.31253 -7.94589
rtoes 13.9208
lfemur 5.37967 2.45284 -31.8351
ltibia 15.1712
lfoot -16.1568 -6.9229
ltoes 6.43963
366
root -3.61749 17.2677 8.67397 234.43 -81.7106 -232.33
lowerback 6.85535 -1.74774 -7.52588
upperback 0.292309 -2.89831 0.874814
thorax -3.12673 -1.3352 5.40854
lowerneck -16.6267 -3.43067 -9.40219
upperneck 24.2048 -3.90292 5.05218
head 10.8428 -2.17484 2.8262
rclavicle -4.77083e-015 3.97569e-015
rhumerus -34.9131 -15.1237 -79.1494
rradius 31.1524
rwrist 9.3705
rhand -14.8247 12.0604
rfingers 7.12502
rthumb 11.3338 -17.6133
lclavicle -4.77083e-015 3.97569e-015
lhumerus -22.25 9.53107 87.0796
lradius 30.6746
lwrist -12.1806
lhand -13.1498 22.7246
lfingers 7.12502
lthumb 12.9488 52.3028
rfemur -30.7018 4.60975 13.7787
rtibia 18.42
rfoot -7.47997 -8.61107
rtoes 13.36
lfemur 6.26792 1.91278 -31.4158
ltibia 14.3103
lfoot -15.5128 -6.96069
ltoes 8.72695
367
root -3.77821 17.2732 8.64518 235.492 -82.7634 -232.982
lowerback 6.24709 -1.93321 -6.74431
upperback 0.238319 -3.03163 1.07404
thorax -2.8503 -1.41994 5.15844
lowerneck -16.4263 -3.52463 -9.44695
upperneck 23.9553 -4.04662 5.12027
head 10.7265 -2.23262 2.83629
rclavicle -2.55438e-014 8.74653e-015
rhumerus -34.9727 -15.3092 -79.0963
rradius 31.2078
rwrist 9.77551
rhand -13.8845 12.3199
rfingers 7.12502
rthumb 12.2404 -17.3019
lclavicle -2.55438e-014 8.74653e-015
lhumerus -22.1474 9.5112 87.0982
lradius 30.3706
lwrist -12.5795
lhand -13.3763 23.1991
lfingers 7.12502
lthumb 12.7304 52.791
rfemur -30.5085 5.06141 14.312
rtibia 16.9999
rfoot -8.5711 -9.31684
rtoes 12.9496
lfemur 6.62468 1.96954 -30.2868
ltibia 13.9239
lfoot -15.2248 -8.03499
ltoes 10.1518
368
root -3.91611 17.2495 8.61158 240.456 -81.3334 -237.759
lowerback 6.05121 -1.68621 -8.5759
upperback 0.117554 -2.83679 0.629225
thorax -2.83091 -1.29891 5.70498
lowerneck -16.2488 -3.55948 -9.31389
upperneck 23.8491 -4.12623 5.04383
head 10.6548 -2.26646 2.77481
rclavicle -2.55438e-014 -1.35174e-014
rhumerus -35.1228 -15.7193 -79.0226
rradius 31.3132
rwrist 10.072
rhand -13.7477 12.1521
rfingers 7.12502
rthumb 12.3723 -17.4618
lclavicle -2.55438e-014 -1.35174e-014
lhumerus -22.1748 9.3742 86.9771
lradius 30.0831
lwrist -12.847
lhand -13.4262 22.8751
lfingers 7.12502
lthumb 12.6823 52.47
rfemur -30.5936 6.14028 12.3394
rtibia 16.0372
rfoot -9.05453 -9.69179
rtoes 13.3585
lfemur 6.81614 1.91235 -31.9626
ltibia 13.8659
lfoot -15.2117 -7.76163
ltoes 9.2332
